<svg version="1.1" xmlns="http://www.w3.org/2000/svg" xmlns:xlink="http://www.w3.org/1999/xlink" x="0px" y="0px"
     width="300px" height="300px" viewBox="0 0 300 300" enable-background="new 0 0 300 300" xml:space="preserve">
    <g>
        <circle cx="150" cy="150" r="150" fill="#000"/>
        <path id="circlePath" d="M 150, 150 m -115, 0 a 115,115 0 0,1 230,0" stroke="transparent" stroke-width="3"/>
        <path id="circlePathLower" d="M -242, -150 m 230, 0 a 115,115 0 0,0 -276,0" stroke="transparent"
              stroke-width="3" transform="scale(-1, -1) translate(0, 0)"/>
        <text fill="#fff" font-size="32px" text-anchor="middle">
            <textPath xlink:href="#circlePath" startOffset="50%">Odense Pride</textPath>
        </text>
        <text fill="#fff" font-size="32px" text-anchor="middle">
            <textPath xlink:href="#circlePathLower" startOffset="50%">15. maj 2021</textPath>
        </text>
        <svg xmlns="http://www.w3.org/2000/svg" version="1.1" viewBox="0 0 100 100" width="200px" height="200px" x="50px" y="50px">
            <mask id="mask-1">
                <circle cx="50" cy="50" r="50" fill="white"/>
            </mask>
            <g transform="rotate(-20, 50, 50)" mask="url(#mask-1)">
                <rect width="100" height="100" fill="#750787"/>
                <path d="M 0 0 L 0 84.61538461538461 c 30 4, 40 -15, 100 0 L 100 0" fill="#004dff"/>
                <path d="M 0 0 L 0 69.23076923076923 c 30 4, 40 -15, 100 0 L 100 0" fill="#008026"/>
                <path d="M 0 0 L 0 53.84615384615384 c 30 4, 40 -15, 100 0 L 100 0" fill="#ffed00"/>
                <path d="M 0 0 L 0 38.46153846153845 c 30 4, 40 -15, 100 0 L 100 0" fill="#ff8c00"/>
                <path d="M 0 0 L 0 23.076923076923066 c 30 4, 40 -15, 100 0 L 100 0" fill="#e40303"/>
            </g>
        </svg>
    </g>
</svg>
